<svg xmlns="http://www.w3.org/2000/svg" width="30" height="30" viewBox="0 0 30 30">
    <g fill="#DEDEDE" fill-rule="evenodd">
        <path d="M7.997 13.996H25v-2.001H7.997v2.001zm0 9.004H25v-6.002H7.997V23zM4.5 18.009a.5.5 0 0 1-.5-.5V7.5a.5.5 0 0 1 .5-.5h14.999c.276 0 .501.224.501.5v3.495H7.997a1 1 0 0 0-1.001 1V18.009H4.5zM25 10.995h-4V7.5A1.5 1.5 0 0 0 19.499 6H4.5A1.5 1.5 0 0 0 3 7.5v10.009a1.5 1.5 0 0 0 1.5 1.501h2.496V23a1 1 0 0 0 1.001 1H25a1 1 0 0 0 1-1V11.995a1 1 0 0 0-1-1z"/>
        <path d="M20.999 20.999h1a1 1 0 1 0 0-2.001h-1a1 1 0 0 0 0 2.001M10.998 20.999h2v-1h-2zM13.998 20.999h2v-1h-2z"/>
    </g>
</svg>
