<svg xmlns="http://www.w3.org/2000/svg" width="30" height="30" viewBox="0 0 30 30">
    <g fill="#737276" fill-rule="nonzero">
        <path d="M15.491 9c-4.187 0-7.795 2.384-9.453 5.825a.38.38 0 0 0 0 .332c1.658 3.441 5.266 5.825 9.453 5.825 4.187 0 7.796-2.384 9.454-5.825a.38.38 0 0 0 0-.332C23.287 11.385 19.678 9 15.49 9zm0 10.125c-2.364 0-4.278-1.85-4.278-4.133 0-2.284 1.916-4.133 4.278-4.133 2.365 0 4.279 1.851 4.279 4.133s-1.916 4.133-4.279 4.133z"/>
        <ellipse cx="15.5" cy="14.877" rx="2.5" ry="2.415"/>
    </g>
</svg>
