<svg xmlns="http://www.w3.org/2000/svg" width="30" height="30" viewBox="0 0 30 30">
    <g fill="#DEDEDE" fill-rule="evenodd">
        <path d="M24.174 18.371a4.536 4.536 0 0 1-.486 1.653 3.713 3.713 0 0 1-.966 1.177c-.39.308-.873.566-1.451.773a9.795 9.795 0 0 1-1.82.456c-.633.098-1.36.163-2.45.198V26H15v-3.318c-.874 0-1.541-.005-2-.014V26h-2v-4H6.21l.464-2H8.13c.5 0 .79-.232.87-.693V9.925C8.87 9.308 8.425 9 7.665 9H6V7l3.43.012c.69 0 1.214-.004 1.57-.012V4h2v3.266c.896-.018 1.563-.027 2-.027V4h2v3.332c1.06.061 1.76.161 2.369.297a7.392 7.392 0 0 1 1.692.595c.519.26.93.604 1.235 1.031.304.428.486.932.546 1.513.18 1.605-.474 2.742-1.961 3.412 1.168.247 2.042.701 2.62 1.361.579.662.803 1.605.673 2.83m.08-3.488a4.636 4.636 0 0 0-1.28-1.01c.71-.839 1.007-1.923.863-3.207-.078-.753-.322-1.423-.727-1.99a4.296 4.296 0 0 0-1.601-1.346 8.366 8.366 0 0 0-1.921-.676C19.187 6.564 18 6.428 18 6.428V3h-8v3l-.813.001L5 5.984V10h2.667c.198 0 .293.03.333.068V19H5.868L5.1 23H10v4h8v-3.43a14.773 14.773 0 0 0 1.603-.152 10.728 10.728 0 0 0 2.004-.503c.678-.242 1.262-.555 1.736-.93a4.708 4.708 0 0 0 1.227-1.49c.314-.588.515-1.265.599-2.019.16-1.507-.148-2.717-.915-3.593"/>
        <path d="M14 10.632l.42-.007c.179-.004.44.006.776.03.332.024.606.056.819.094.196.034.423.094.676.18.195.066.33.136.41.2a.891.891 0 0 1 .211.263.58.58 0 0 1 .062.29.655.655 0 0 1-.049.27.295.295 0 0 1-.095.117 3.16 3.16 0 0 1-.419.27 1.832 1.832 0 0 1-.46.148 16.29 16.29 0 0 1-.725.137 6.345 6.345 0 0 1-.705.061 66.248 66.248 0 0 1-.921.03v-2.083zm.213 3.08l.748-.028a7.15 7.15 0 0 0 .824-.073c.219-.035.476-.083.771-.146.294-.06.536-.143.725-.244.19-.1.375-.22.554-.357.18-.136.315-.306.405-.509.089-.202.134-.428.134-.674 0-.29-.062-.549-.187-.774a1.862 1.862 0 0 0-.457-.555 2.303 2.303 0 0 0-.718-.37 5.68 5.68 0 0 0-.824-.218 9.139 9.139 0 0 0-.92-.106 9.793 9.793 0 0 0-.869-.033l-.808.013c-.324.005-.521.007-.591.007v4.06c.05 0 .222.001.517.006.294.004.526.004.696 0zM18.39 18.002a.88.88 0 0 1-.17.248 1.092 1.092 0 0 1-.307.196 4.315 4.315 0 0 1-.581.228c-.18.056-.413.107-.698.154-.3.049-.561.083-.782.104-.225.02-.5.036-.825.049-.331.013-.582.019-.754.019L14 18.999v-2.5a17.412 17.412 0 0 1 1.65.03c.404.025.737.06.994.106.256.045.542.117.857.215.258.08.449.169.573.258.109.08.203.183.284.316.053.087.08.189.08.328a.577.577 0 0 1-.048.25m.27-1.482a2.978 2.978 0 0 0-.861-.403 7.924 7.924 0 0 0-.981-.245c-.3-.053-.67-.092-1.108-.119a18.54 18.54 0 0 0-1.033-.039c-.25 0-.571.004-.966.013-.394.009-.631.013-.711.013v4.469l.554.006a24.456 24.456 0 0 0 1.512-.012c.34-.014.632-.032.876-.054.245-.022.529-.059.854-.112.324-.053.6-.114.83-.185.23-.071.467-.163.71-.278.246-.114.443-.246.593-.396.149-.15.272-.326.367-.529.094-.203.142-.427.142-.674 0-.318-.075-.6-.225-.847a2.049 2.049 0 0 0-.553-.608"/>
    </g>
</svg>
