<svg xmlns="http://www.w3.org/2000/svg" width="30" height="30" viewBox="0 0 30 30">
    <g fill="#DEDEDE" fill-rule="nonzero">
        <path d="M25.343 16.55a1.845 1.845 0 0 0-2.54.153l-1.808 1.941a1.85 1.85 0 0 0-1.602-1.291c.32-.224.625-.478.909-.76a6.696 6.696 0 0 0 2.006-4.784C22.308 8.079 19.243 5 15.5 5c-3.733 0-6.768 3.07-6.768 6.809 0 1.688.625 3.29 1.74 4.525a4.28 4.28 0 0 0-.847.565 1.844 1.844 0 0 0-1.508-.784H5.615A.615.615 0 0 0 5 16.73v8.655c0 .34.275.615.615.615h2.502c.806 0 1.492-.52 1.743-1.24.034.006.068.01.103.01h9.27a4.329 4.329 0 0 0 3.446-1.726l2.952-3.976a1.844 1.844 0 0 0-.288-2.517zm-16.61 7.604c0 .34-.277.615-.616.615H6.23v-7.423h1.887c.34 0 .615.276.615.615v6.193zm1.23-12.345c0-3.076 2.484-5.578 5.537-5.578a5.584 5.584 0 0 1 5.578 5.578c0 2.936-2.316 5.346-5.23 5.526a.614.614 0 0 1-.29-.143l-.29-.254a4.307 4.307 0 0 0-3.478-1.023 5.517 5.517 0 0 1-1.827-4.106zm14.682 6.523l-2.952 3.977a3.09 3.09 0 0 1-2.46 1.23h-9.27v-5.3l.429-.377a3.083 3.083 0 0 1 4.064 0c.209.184.776.714 1.044.714h3.732a.616.616 0 0 1 0 1.23H14.82a.615.615 0 0 0 0 1.231h4.826c.51 0 1.002-.214 1.35-.588l2.709-2.907a.614.614 0 0 1 .94.79z"/>
        <path d="M15.5 11.193A.616.616 0 0 1 15.29 10c.315-.115.683.04 1.008.428a.615.615 0 0 0 .943-.791c-.333-.396-.72-.669-1.126-.805v-.715a.615.615 0 0 0-1.23 0v.721l-.017.006a1.852 1.852 0 0 0-1.214 1.734c0 1.018.828 1.846 1.846 1.846a.616.616 0 0 1 .24 1.182c-.276.117-.606.017-.905-.273a.615.615 0 0 0-.857.884c.278.269.587.459.907.566v.717a.615.615 0 0 0 1.23 0v-.72l.104-.04a1.843 1.843 0 0 0 1.127-1.7 1.848 1.848 0 0 0-1.846-1.847z"/>
    </g>
</svg>
