<svg xmlns="http://www.w3.org/2000/svg" width="30" height="30" viewBox="0 0 30 30">
    <path fill="#737276" fill-rule="nonzero" d="M26 8.126a8.266 8.266 0 0 1-2.474.715 4.523 4.523 0 0 0 1.894-2.51 8.423 8.423 0 0 1-2.737 1.102C21.897 6.55 20.778 6 19.538 6c-2.379 0-4.308 2.032-4.308 4.537 0 .355.038.702.112 1.034-3.58-.19-6.754-1.996-8.879-4.742A4.689 4.689 0 0 0 5.88 9.11c0 1.575.762 2.964 1.916 3.776a4.144 4.144 0 0 1-1.95-.569v.057c0 2.197 1.485 4.032 3.454 4.45-.36.101-.741.158-1.135.158-.278 0-.547-.029-.81-.084.548 1.804 2.138 3.115 4.023 3.151A8.37 8.37 0 0 1 5 21.927a11.734 11.734 0 0 0 6.603 2.041c7.925 0 12.257-6.914 12.257-12.91l-.015-.588A8.869 8.869 0 0 0 26 8.126z"/>
</svg>
