<svg xmlns="http://www.w3.org/2000/svg" width="30" height="30" viewBox="0 0 30 30">
    <g fill="#DEDEDE" fill-rule="evenodd">
        <path fill-rule="nonzero" d="M18.774 15.521a5.32 5.32 0 0 0 1.249-3.458C20.023 9.25 17.962 7 15.443 7c-2.52 0-4.58 2.25-4.58 5.063 0 1.352.484 2.565 1.257 3.47C9.799 15.966 8 17.997 8 20.39v2.047c0 .338.229.563.573.563.343 0 .572-.225.572-.563V20.39c0-2.138 1.718-3.826 3.893-3.826h.347c.622.348 1.315.563 2.058.563.743 0 1.436-.215 2.059-.563h.345c2.176 0 3.893 1.688 3.893 3.826v2.047c0 .338.23.563.573.563.343 0 .573-.225.687-.563V20.39c0-2.428-1.855-4.476-4.226-4.869zM12 12c0-2.171 1.517-4 3.5-4S19 9.829 19 12c0 2.171-1.517 4-3.5 4S12 14.171 12 12z"/>
        <rect width="15" height="1" x="8" y="22" rx=".5"/>
    </g>
</svg>
