<svg xmlns="http://www.w3.org/2000/svg" width="30" height="30" viewBox="0 0 30 30">
    <path fill="#DEDEDE" fill-rule="nonzero" d="M14.89 8a6.89 6.89 0 1 0 .001 13.782 6.89 6.89 0 0 0 0-13.782zm1.435 10.68c-.355.14-.637.245-.849.319a2.24 2.24 0 0 1-.736.11c-.43 0-.764-.105-1.002-.314a1.015 1.015 0 0 1-.356-.798c0-.125.009-.254.026-.384.018-.13.047-.278.086-.443l.444-1.568c.039-.15.073-.293.1-.426a1.89 1.89 0 0 0 .04-.37c0-.2-.042-.34-.124-.418-.084-.079-.24-.117-.475-.117-.114 0-.232.017-.353.052-.12.037-.223.07-.308.103l.117-.483c.29-.118.569-.22.834-.304.266-.085.516-.127.753-.127.426 0 .755.104.987.31.23.205.346.473.346.802 0 .068-.008.188-.024.36a2.408 2.408 0 0 1-.088.473L15.3 17.02a4.423 4.423 0 0 0-.097.43 2.27 2.27 0 0 0-.043.365c0 .207.046.349.14.424.092.075.253.113.482.113a1.4 1.4 0 0 0 .365-.056c.135-.037.233-.07.295-.1l-.118.483zm-.078-6.346a1.054 1.054 0 0 1-.744.287c-.29 0-.54-.096-.747-.287a.916.916 0 0 1-.31-.696c0-.272.104-.505.31-.698.208-.194.457-.29.747-.29s.538.096.744.29c.206.193.309.426.309.698a.916.916 0 0 1-.31.696z"/>
</svg>
