<svg xmlns="http://www.w3.org/2000/svg" width="30" height="30" viewBox="0 0 30 30">
    <g fill="#DEDEDE" fill-rule="nonzero">
        <path d="M23 13v-2c.143-1.796-1.036-3-3-3H9c-1.821 0-3 1.204-3 3v9c0 1.796 1.179 3 3 3h11c1.964 0 3.143-1.204 3-3v-2c.647-.357 1-.94 1-2v-1c0-.952-.353-1.533-1-2zm0 3c0 .7-.323 1-1 1h-5c-.677 0-1-.3-1-1v-1c0-.7.323-1 1-1h5c.677 0 1 .3 1 1v1zm-3 6H9c-1.25 0-2-.778-2-2v-9c0-1.222.75-2 2-2h11c1.25 0 2 .778 2 2v2h-5c-1.321-.222-2.179.667-2 2v1c-.179 1.444.679 2.333 2 2h5v2c0 1.222-.75 2-2 2z"/>
        <path d="M17 15v1c0-.381 0-.286 0 0 .2-.095.4 0 1 0-.4 0-.3-.095 0 0-.1-.19 0-.381 0 0 0-.667-.1-.762 0-1-.4-.048-.7-.048-1 0z"/>
    </g>
</svg>
