<svg xmlns="http://www.w3.org/2000/svg" xmlns:xlink="http://www.w3.org/1999/xlink" width="30" height="30" viewBox="0 0 30 30">
    <defs>
        <path id="a" d="M11 0H0v22h22V0z"/>
    </defs>
    <g fill="none" fill-rule="evenodd">
        <g transform="translate(4 4)">
            <mask id="b" fill="#fff">
                <use xlink:href="#a"/>
            </mask>
            <path fill="#FFF" d="M11.926 0h-1.96a1.33 1.33 0 0 0-1.311 1.108l-.272 1.59a8.461 8.461 0 0 0-1.494.629l-1.264-.91a1.348 1.348 0 0 0-.79-.252c-.363 0-.708.142-.961.399l-1.39 1.387a1.33 1.33 0 0 0-.145 1.714l.934 1.312a8.544 8.544 0 0 0-.612 1.502l-1.55.262A1.332 1.332 0 0 0 0 10.055v1.979c0 .652.47 1.208 1.112 1.317l1.585.271c.162.515.374 1.016.63 1.494l-.92 1.278a1.326 1.326 0 0 0 .14 1.71l1.392 1.391a1.351 1.351 0 0 0 1.746.148l1.292-.92c.464.244.95.442 1.452.598l.26 1.566A1.332 1.332 0 0 0 10.005 22h1.985c.652 0 1.208-.47 1.317-1.111l.266-1.568a8.724 8.724 0 0 0 1.498-.621l1.273.91c.229.166.505.253.79.253.363 0 .703-.142.96-.4l1.389-1.387c.459-.46.519-1.184.142-1.714l-.924-1.297a8.67 8.67 0 0 0 .62-1.498l1.569-.261a1.33 1.33 0 0 0 1.11-1.313v-1.96a1.343 1.343 0 0 0-1.125-1.343l-1.544-.261a8.659 8.659 0 0 0-.621-1.498l.924-1.293a1.329 1.329 0 0 0-.141-1.712l-1.39-1.389a1.347 1.347 0 0 0-1.745-.147l-1.278.91a8.644 8.644 0 0 0-1.553-.639l-.258-1.526A1.358 1.358 0 0 0 11.926 0m.002 1c.167 0 .309.119.336.284l.27 1.603c.06.356.329.626.674.728.473.139.945.332 1.402.573a1.026 1.026 0 0 0 1.072-.071l1.284-.915a.331.331 0 0 1 .429.041l1.398 1.398a.296.296 0 0 1 .03.383L17.85 6.39a.922.922 0 0 0-.044.979c.233.437.428.905.575 1.389.104.341.37.602.722.661l1.503.255c.293.05.395.176.395.325v2.002a.303.303 0 0 1-.253.299l-1.693.282a.86.86 0 0 0-.675.626 7.645 7.645 0 0 1-.586 1.423.93.93 0 0 0 .048.977l.972 1.365a.301.301 0 0 1-.033.389l-1.395 1.395a.337.337 0 0 1-.436.039l-1.275-.912a1.023 1.023 0 0 0-1.074-.072 7.685 7.685 0 0 1-1.36.559c-.338.104-.6.37-.66.721l-.256 1.513c-.05.293-.174.395-.322.395H9.994a.302.302 0 0 1-.298-.252l-.275-1.65a.927.927 0 0 0-.66-.726 7.672 7.672 0 0 1-1.317-.539 1.03 1.03 0 0 0-1.07.073l-1.3.924a.325.325 0 0 1-.427-.04L3.25 17.391a.298.298 0 0 1-.031-.384l.968-1.346a.928.928 0 0 0 .042-.993 7.493 7.493 0 0 1-.58-1.376c-.105-.339-.37-.601-.72-.661l-1.533-.261c-.293-.05-.395-.175-.395-.323v-2.003c0-.147.107-.273.252-.297l1.635-.276a.928.928 0 0 0 .726-.67 7.56 7.56 0 0 1 .566-1.389c.165-.312.163-.683-.043-.972l-.902-1.269c-.172-.241-.156-.401-.052-.504l1.407-1.403a.326.326 0 0 1 .233-.095c.072 0 .139.021.194.06l1.266.913a1.024 1.024 0 0 0 1.083.07 7.61 7.61 0 0 1 1.347-.565c.34-.104.602-.369.66-.72l.263-1.532c.05-.293.175-.395.322-.395H12" mask="url(#b)"/>
        </g>
        <path fill="#FFF" d="M14.9 11.415a3.795 3.795 0 0 0-3.793 3.792c0 2.093 1.7 3.793 3.793 3.793 2.092 0 3.792-1.7 3.792-3.793 0-2.092-1.7-3.792-3.792-3.792m0 1.105a2.692 2.692 0 0 1 2.688 2.687 2.691 2.691 0 0 1-2.688 2.688 2.69 2.69 0 0 1-2.688-2.688A2.691 2.691 0 0 1 14.9 12.52"/>
    </g>
</svg>
