<svg xmlns="http://www.w3.org/2000/svg" xmlns:xlink="http://www.w3.org/1999/xlink" width="30" height="30" viewBox="0 0 30 30">
    <defs>
        <rect id="a" width="21" height="10" x="5" y="20" rx="2"/>
    </defs>
    <g fill="none" fill-rule="evenodd">
        <path fill="#DEDEDE" fill-rule="nonzero" d="M18.774 15.521a5.32 5.32 0 0 0 1.249-3.458C20.023 9.25 17.962 7 15.443 7c-2.52 0-4.58 2.25-4.58 5.063 0 1.352.484 2.565 1.257 3.47C9.799 15.966 8 17.997 8 20.39v2.047c0 .338.229.563.573.563.343 0 .572-.225.572-.563V20.39c0-2.138 1.718-3.826 3.893-3.826h.347c.622.348 1.315.563 2.058.563.743 0 1.436-.215 2.059-.563h.345c2.176 0 3.893 1.688 3.893 3.826v2.047c0 .338.23.563.573.563.343 0 .573-.225.687-.563V20.39c0-2.428-1.855-4.476-4.226-4.869zM12 12c0-2.171 1.517-4 3.5-4S19 9.829 19 12c0 2.171-1.517 4-3.5 4S12 14.171 12 12z"/>
        <rect width="15" height="1" x="8" y="22" fill="#DEDEDE" rx=".5"/>
        <mask id="b" fill="#fff">
            <use xlink:href="#a"/>
        </mask>
        <use fill="#D50E22" xlink:href="#a"/>
        <g fill="#C90A2A" mask="url(#b)">
            <path d="M5 20h21v10H5z"/>
        </g>
        <path fill="#FFF" d="M9.266 22.084c.477 0 .892.084 1.246.251.354.168.626.408.815.72.189.313.283.685.283 1.115 0 .424-.094.794-.283 1.11-.19.315-.46.557-.815.725-.354.167-.77.25-1.246.25H8.023v1.693H7v-5.864h2.266zm-.048 3.25c.446 0 .784-.1 1.015-.301.231-.201.346-.489.346-.863s-.115-.662-.346-.863c-.23-.201-.569-.302-1.015-.302H8.023v2.33h1.195zm7.096 2.614l-1.125-1.717a1.97 1.97 0 0 1-.212.008h-1.243v1.71H12.71v-5.865h2.266c.477 0 .893.084 1.247.251.354.168.625.408.814.72.189.313.283.685.283 1.115 0 .441-.1.82-.303 1.14a1.822 1.822 0 0 1-.869.711l1.267 1.927h-1.102zm-.023-3.778c0-.374-.116-.662-.347-.863-.23-.201-.569-.302-1.014-.302h-1.196v2.338h1.196c.445 0 .784-.102 1.014-.306.231-.204.347-.493.347-.867zm4.743 3.862c-.56 0-1.067-.13-1.518-.39a2.792 2.792 0 0 1-1.062-1.08 3.119 3.119 0 0 1-.386-1.546c0-.57.129-1.085.386-1.546.257-.46.61-.82 1.062-1.08.451-.26.957-.39 1.518-.39s1.067.13 1.519.39a2.8 2.8 0 0 1 1.062 1.076c.257.458.385.975.385 1.55 0 .575-.128 1.092-.385 1.55a2.8 2.8 0 0 1-1.062 1.076c-.452.26-.958.39-1.519.39zm0-.955a1.855 1.855 0 0 0 1.683-1.001c.169-.316.252-.669.252-1.06s-.083-.744-.251-1.06a1.855 1.855 0 0 0-.693-.737 1.891 1.891 0 0 0-.99-.264c-.368 0-.698.088-.992.264a1.855 1.855 0 0 0-.692.737 2.221 2.221 0 0 0-.252 1.06c0 .391.084.744.252 1.06.168.315.398.561.692.737.294.176.624.264.991.264z" mask="url(#b)"/>
    </g>
</svg>
