<svg xmlns="http://www.w3.org/2000/svg" width="30" height="30" viewBox="0 0 30 30">
    <g fill="#DEDEDE" fill-rule="evenodd">
        <path d="M21.5 4h-11A2.503 2.503 0 0 0 8 6.5V10h1V6.5c0-.827.673-1.5 1.5-1.5h11c.827 0 1.5.673 1.5 1.5v17c0 .827-.673 1.5-1.5 1.5h-11c-.827 0-1.5-.673-1.5-1.5V19H8v4.5c0 1.378 1.122 2.5 2.5 2.5h11c1.378 0 2.5-1.122 2.5-2.5v-17C24 5.122 22.878 4 21.5 4"/>
        <path d="M12.975 17.975l.707.707 4.182-4.182-4.182-4.182-.707.707L15.95 14H5v1h10.95z"/>
    </g>
</svg>
